<?xml version="1.0" encoding="UTF-8" standalone="no"?>
<!-- Created with Inkscape (http://www.inkscape.org/) -->

<svg
  width="84.666664mm"
  height="84.666664mm"
  viewBox="0 0 84.666664 84.666664"
  version="1.1"
  id="svg1"
  xml:space="preserve"
  inkscape:version="1.3 (0e150ed, 2023-07-21)"
  sodipodi:docname="mime.svg"
  inkscape:export-filename="mime.png"
  inkscape:export-xdpi="300"
  inkscape:export-ydpi="300"
  xmlns:inkscape="http://www.inkscape.org/namespaces/inkscape"
  xmlns:sodipodi="http://sodipodi.sourceforge.net/DTD/sodipodi-0.dtd"
  xmlns="http://www.w3.org/2000/svg"
  xmlns:svg="http://www.w3.org/2000/svg">
  <sodipodi:namedview
     id="namedview1"
     pagecolor="#ffffff"
     bordercolor="#000000"
     borderopacity="0.25"
     inkscape:showpageshadow="2"
     inkscape:pageopacity="0.0"
     inkscape:pagecheckerboard="0"
     inkscape:deskcolor="#d1d1d1"
     inkscape:document-units="mm"
     showguides="true"
     inkscape:zoom="2.2337012"
     inkscape:cx="276.89469"
     inkscape:cy="148.18455"
     inkscape:window-width="2528"
     inkscape:window-height="1191"
     inkscape:window-x="904"
     inkscape:window-y="25"
     inkscape:window-maximized="0"
     inkscape:current-layer="svg1"><sodipodi:guide
       position="111.87192,126.88707"
       orientation="0,-1"
       id="guide6"
       inkscape:locked="false" />
      </sodipodi:namedview>
      <defs
     id="defs1" />
     <g
     inkscape:label="Layer 1"
     inkscape:groupmode="layer"
     id="layer1"><ellipse
       style="display:inline;fill:#000000;stroke-width:0.264583"
       id="path3"
       cx="42.412979"
       cy="42.56665"
       rx="42.412979"
       ry="42.56665" /><circle
       style="fill:#ffffff;stroke-width:0.264583"
       id="path6"
       cx="42.360741"
       cy="42.324646"
       r="38.571224"
       inkscape:label="path6" /><path
       style="fill:#000000"
       d="m 41.893023,78.431174 c -0.20853,-0.54342 0.21,-0.94953 0.67951,-0.65936 0.39986,0.24712 0.2157,1.07402 -0.2392,1.07402 -0.15466,0 -0.3528,-0.1866 -0.44031,-0.41466 z m -0.33999,-1.8181 c -0.20036,-0.24141 -0.26772,-0.68272 -0.16606,-1.08778 0.13728,-0.54695 0.3077,-0.66522 0.86276,-0.59875 0.38042,0.0456 0.82215,0.29119 0.9816,0.54585 0.6094,0.97326 -0.9421,2.02776 -1.6783,1.14068 z m -9.141575,-0.55032 c -1.717136,-0.42333 -3.13683,-0.95787 -4.913643,-1.85008 -2.257577,-1.13362 -2.289479,-1.20411 -0.776769,-1.71621 0.734353,-0.2486 1.374118,-0.49927 1.421701,-0.55705 1.664234,-2.02066 3.186125,-4.39857 3.618202,-5.65331 0.783108,-2.27414 0.976397,-5.95349 0.414328,-7.88694 -0.945375,-3.25197 -3.406385,-4.47321 -4.551578,-2.25865 -0.364053,0.704 -0.359678,0.89076 0.04573,1.95231 0.293237,0.76783 0.607685,1.17384 0.909118,1.17384 1.049647,0 1.373772,1.37888 0.459472,1.95466 -0.678319,0.42718 -1.389062,-0.11839 -1.389062,-1.06625 0,-0.42204 -0.267891,-1.10831 -0.595313,-1.52502 -1.428016,-1.81747 0.155863,-4.91964 2.511825,-4.91964 0.878983,0 0.780548,-0.10207 -2.25478,-2.33808 -1.745638,-1.28594 -3.735397,-2.60201 -4.421686,-2.92461 -2.485705,-1.16842 -5.914187,-2.13639 -9.535689,-2.69223 -2.032813,-0.312 -3.7440703,-0.61275 -3.8027933,-0.66833 -0.05872,-0.0556 0.298464,-0.27129 0.7937503,-0.47935 5.382746,-2.26125 7.719149,-3.52151 11.953044,-6.44749 6.73514,-4.65457 11.733466,-7.45594 15.282841,-8.56547 2.777057,-0.86811 6.729287,-0.86811 9.506347,0 3.54938,1.10953 8.54771,3.9109 15.28285,8.56547 4.23389,2.92598 6.57029,4.18624 11.95304,6.44749 0.49529,0.20806 0.85247,0.42377 0.79375,0.47935 -0.0587,0.0556 -1.76998,0.35633 -3.80279,0.66833 -3.62151,0.55584 -7.04999,1.52381 -9.53569,2.69223 -0.68629,0.3226 -2.67605,1.63867 -4.42169,2.92461 -3.03533,2.23601 -3.13376,2.33808 -2.25478,2.33808 2.35596,0 3.93984,3.10217 2.51183,4.91964 -0.32743,0.41671 -0.59532,1.10298 -0.59532,1.52502 0,0.94786 -0.71074,1.49343 -1.38906,1.06625 -0.9143,-0.57578 -0.59017,-1.95466 0.45947,-1.95466 0.30144,0 0.61588,-0.40601 0.90912,-1.17384 0.40541,-1.06155 0.40979,-1.24831 0.0457,-1.95231 -1.14519,-2.21456 -3.6062,-0.99332 -4.55158,2.25865 -0.56206,1.93345 -0.36878,5.6128 0.41433,7.88694 0.43208,1.25474 1.95397,3.63265 3.6182,5.65331 0.0476,0.0578 0.68735,0.30845 1.42171,0.55705 1.5074,0.51031 1.47515,0.58557 -0.72387,1.6894 -1.73717,0.872 -3.83382,1.65251 -5.31644,1.97914 -1.01745,0.22414 -1.12333,0.20348 -0.95946,-0.18726 0.54477,-1.29902 0.50796,-2.16889 -0.22015,-5.2017 -0.61732,-2.57134 -0.77075,-3.8384 -0.80699,-6.6642 -0.0246,-1.91906 -0.12218,-3.40734 -0.2168,-3.30729 -0.90417,0.95597 -7.104,12.76462 -7.104,13.53079 0,0.15244 -0.11906,0.27715 -0.26458,0.27715 -0.14552,0 -0.26458,-0.12471 -0.26458,-0.27715 0,-0.76586 -6.197018,-12.56961 -7.103999,-13.53132 -0.09463,-0.10033 -0.183599,1.32842 -0.197717,3.175 -0.02061,2.69562 -0.170003,3.95721 -0.757875,6.40014 -0.778496,3.23508 -0.867111,4.43209 -0.393606,5.31684 0.16169,0.30213 0.25457,0.58162 0.2064,0.6211 -0.04817,0.0395 -0.682895,-0.075 -1.410499,-0.25435 z m 11.587595,-11.5801 c 2.18556,-3.47464 4.23482,-6.2436 5.50635,-7.44021 0.60407,-0.56848 0.87459,-0.94056 0.60114,-0.82684 -2.78831,1.15958 -3.68337,1.31048 -7.77321,1.31048 -4.089842,0 -4.984901,-0.1509 -7.773214,-1.31048 -0.273444,-0.11372 -0.0029,0.25836 0.601142,0.82684 1.271528,1.19661 3.320786,3.96557 5.506352,7.44021 0.84338,1.34082 1.59296,2.43786 1.66572,2.43786 0.0728,0 0.82233,-1.09704 1.66572,-2.43786 z m 3.87363,-9.08582 c 2.78147,-0.68907 4.6836,-1.70558 8.35127,-4.46293 3.72003,-2.79671 5.6472,-3.81879 9.93268,-5.26783 2.50049,-0.84548 2.65979,-0.93647 1.65209,-0.9436 -2.2736,-0.0161 -4.50925,1.01543 -11.69124,5.39428 -2.82345,1.72146 -5.63423,3.3514 -6.24617,3.62209 -3.01283,1.33272 -8.31651,1.7412 -12.007435,0.92479 -2.67862,-0.59249 -3.432332,-0.9604 -9.3147,-4.54688 -7.181991,-4.37885 -9.41764,-5.41037 -11.691237,-5.39428 -1.007697,0.007 -0.848396,0.0981 1.652088,0.9436 4.284597,1.44874 6.212241,2.47089 9.932679,5.26688 5.485779,4.12268 7.543704,4.85324 13.741425,4.87821 2.80715,0.0113 4.4549,-0.10871 5.68855,-0.41433 z m -1.91071,-1.40072 c 1.42399,-0.27943 3.05747,-0.70691 3.62997,-0.94995 0.57249,-0.24304 3.59754,-1.99284 6.72232,-3.88845 3.12479,-1.89561 6.06546,-3.60702 6.53483,-3.80313 0.83544,-0.34907 1.30937,-1.23812 1.07044,-2.00804 -0.06,-0.19346 -0.1766,-0.74161 -0.25902,-1.21811 -0.13662,-0.78979 0.233839,-0.629571 0.695529,-0.382481 0.27855,0.14907 0.60357,0.27054 0.72228,0.26992 0.11871,-6.1e-4 -1.730459,-1.085829 -3.694989,-2.151459 -1.96453,-1.06563 -4.42595,-2.48725 -5.46983,-3.15915 -2.36771,-1.524 -4.58434,-2.65848 -4.58434,-2.34629 0,0.13016 0.18788,0.39258 0.41752,0.58315 0.57249,0.47513 1.55277,2.46655 2.06652,4.19808 1.49575,5.0413 -1.25392,11.31827 -5.94024,13.56044 -2.44504,1.16984 -3.29796,1.3395 -6.1608,1.22547 -2.386965,-0.0951 -2.89158,-0.20608 -4.530924,-0.99671 -2.496479,-1.204 -4.38449,-3.13235 -5.638907,-5.7594 -0.953534,-1.99693 -0.982614,-2.14567 -0.971475,-4.96896 0.01278,-3.23997 0.398109,-4.5903 1.956019,-6.85465 l 0.859068,-1.24861 -1.367419,0.69293 c -0.75208,0.3811 -2.221495,1.24265 -3.265368,1.91455 -1.043872,0.6719 -3.505293,2.09352 -5.469824,3.15915 -1.964531,1.06563 -3.474751,1.93802 -3.356043,1.93863 0.118707,6.2e-4 0.443734,-0.12085 0.722281,-0.26992 0.46169,-0.24709 0.493205,-0.19448 0.356586,0.59531 -0.08243,0.4765 -0.198987,1.02465 -0.259025,1.21811 -0.238931,0.76992 0.235002,1.65897 1.070443,2.00804 0.469369,0.19611 3.410039,1.90752 6.534822,3.80313 6.562772,3.98122 6.958099,4.16894 10.144477,4.81731 3.103759,0.63155 4.336389,0.63504 7.465099,0.0211 z m -0.62602,-4.44517 c 0.60413,-0.23659 1.38237,-0.64765 1.72941,-0.91347 0.61759,-0.47304 0.52059,-0.48331 -4.56406,-0.48331 -2.857279,0 -5.195054,0.0498 -5.195054,0.11071 0,0.0609 0.440598,0.38302 0.979107,0.71584 2.118987,1.3096 4.641637,1.51363 7.050597,0.57023 z m 4.48995,-4.68316 c 0.21921,-0.64334 0.32962,-1.23865 0.24536,-1.32291 -0.0843,-0.0843 -3.59564,-0.15321 -7.80305,-0.15321 h -7.649842 l 0.184617,0.8599 c 0.407955,1.90013 -0.08103,1.78593 7.647075,1.78593 h 6.97728 z m 0.32171,-4.05581 c -0.0993,-0.40018 -0.32213,-1.02526 -0.49511,-1.38906 l -0.31453,-0.66146 -6.47888,-0.0745 c -3.563388,-0.041 -6.741436,-0.0103 -7.062331,0.0682 -0.537884,0.13157 -1.130224,1.41226 -1.13487,2.45369 -0.0011,0.25717 1.740904,0.33073 7.832411,0.33073 h 7.8339 z m -2.7872,-4.58845 c -2.1531,-1.76359 -5.51346,-2.20148 -8.117069,-1.05775 -0.753608,0.33105 -1.575733,0.82902 -1.826945,1.10661 -0.447998,0.49503 -0.350791,0.50459 5.074364,0.49882 l 5.53111,-0.006 z m -37.7031213,5.25193 c 0.6996743,-0.49941 3.4754503,-1.91658 7.5406243,-3.84987 2.388868,-1.13608 4.262453,-2.29149 6.746875,-4.16068 3.926988,-2.95454 6.64344,-4.75297 8.268229,-5.474 1.327294,-0.589 1.379478,-0.91284 0.618924,-3.84082 -0.882155,-3.39613 -2.32981,-6.04606 -4.632517,-8.47982 -2.245888,-2.37371 -4.868729,-1.99346 -6.340353,0.9192 -0.885776,1.75314 -0.449201,3.36267 1.376024,5.07299 1.008788,0.94529 1.116019,1.12428 0.577402,0.96384 -0.363802,-0.10838 -1.035736,-0.42347 -1.493187,-0.70022 -2.853215,-1.7261 -2.283276,-7.73243 0.930222,-9.80318 1.13029,-0.72835 1.36681,-0.77967 3.076506,-0.66761 4.252477,0.27873 7.907513,3.25177 10.746407,8.74122 l 1.221407,2.36178 0.93463,-3.01091 c 0.514046,-1.656 1.392698,-4.64803 1.952548,-6.64894 0.55986,-2.00091 1.07839,-3.6380173 1.1523,-3.6380173 0.0739,0 0.59244,1.6371073 1.15229,3.6380173 0.55986,2.00091 1.43851,4.99294 1.95256,6.64894 l 0.93463,3.01091 1.2214,-2.36178 c 1.52409,-2.94707 3.05853,-4.91181 5.00417,-6.40749 2.05836,-1.58233 3.55434,-2.19032 5.74224,-2.33373 1.7097,-0.11206 1.94622,-0.0607 3.07651,0.66761 3.21349,2.07075 3.78343,8.07708 0.93022,9.80318 -0.45745,0.27675 -1.12939,0.59184 -1.49319,0.70022 -0.53861,0.16044 -0.43138,-0.0186 0.5774,-0.96384 1.82523,-1.71032 2.2618,-3.31985 1.37603,-5.07299 -1.47163,-2.91266 -4.09447,-3.29291 -6.34036,-0.9192 -2.3027,2.43376 -3.75036,5.08369 -4.63251,8.47982 -0.76056,2.92798 -0.70837,3.25182 0.61892,3.84082 1.61303,0.71581 4.32187,2.50622 8.26823,5.46491 3.05418,2.28979 6.64698,4.37198 9.39271,5.44351 1.09578,0.42763 5.31984,2.70027 5.21456,2.80555 -0.18471,0.18472 -5.02512,-1.23279 -6.80206,-1.99197 -3.20441,-1.36905 -5.18293,-2.55798 -8.92559,-5.36358 -5.63314,-4.22276 -8.45158,-5.6116 -12.77024,-6.29281 -2.20804,-0.34828 -6.7878,-0.34828 -8.995837,0 -4.31866,0.68121 -7.137108,2.07005 -12.770245,6.29281 -4.934561,3.69908 -8.886274,5.75009 -13.026629,6.76105 -1.018646,0.24873 -2.0902093,0.5176 -2.3812503,0.59751 l -0.529167,0.14527 z M 43.568053,24.804684 c -0.0801,-0.32742 -0.34734,-2.11336 -0.59395,-3.96875 -0.24661,-1.85539 -0.53496,-3.37343 -0.64077,-3.37343 -0.10581,0 -0.39416,1.51804 -0.64077,3.37343 -0.24661,1.85539 -0.51389,3.64133 -0.59395,3.96875 -0.1369,0.55989 -0.0634,0.59532 1.23472,0.59532 1.29814,0 1.37162,-0.0354 1.23472,-0.59532 z m -18.860192,-0.84444 c -0.396954,-1.03444 0.571396,-2.10749 1.419743,-1.57324 0.999159,0.62922 0.567884,1.95466 -0.636014,1.95466 -0.35055,0 -0.703229,-0.17164 -0.783729,-0.38142 z m 33.522112,0.0106 c -0.73432,-0.8848 0.57484,-2.19396 1.45964,-1.45964 0.21866,0.18147 0.36177,0.63779 0.31803,1.01405 -0.0596,0.51296 -0.25066,0.70399 -0.76363,0.76362 -0.37625,0.0437 -0.83257,-0.0994 -1.01404,-0.31803 z M 41.386823,7.8178587 c -0.19547,-0.778824 0.24883,-1.467859 0.94651,-1.467859 0.64133,0 1.116,0.644377 1.0125,1.374499 -0.0667,0.470677 -0.28065,0.628645 -0.93728,0.692108 -0.72462,0.07004 -0.87616,-0.01877 -1.02173,-0.598748 z m 0.5062,-2.411685 c -0.22052,-0.574665 0.33931,-1.11509 0.74002,-0.714375 0.33868,0.338675 0.12887,1.129034 -0.29971,1.129034 -0.15466,0 -0.3528,-0.186596 -0.44031,-0.414659 z"
       id="path1"
       sodipodi:nodetypes="sssssscsscsscssssssssssssscssssssssssssssscssssssssscssssssssccssssscssssssssssscssssssssssssssssssssssscssssssssssssssssssssscsscscsccscscccsscccssssssssscssscssssscssscsscsssssssssssssscscssssscsssscssccsssssssss"
       inkscape:label="path1" />
      </g>
    </svg>