<?xml version="1.0" encoding="UTF-8"?>
<svg width="85mm" height="85mm" version="1.1" viewBox="0 0 85 85" xml:space="preserve" xmlns="http://www.w3.org/2000/svg">
    <circle cx="42.5" cy="42.5" r="42.5" stroke-width="0"/>
    <circle cx="42.5" cy="42.5" r="38.5" fill="#fff" stroke-width="0"/>
    <path d="m41.893 78.431c-0.20853-0.54342 0.21-0.94953 0.67951-0.65936 0.39986 0.24712 0.2157 1.074-0.2392 1.074-0.15466 0-0.3528-0.1866-0.44031-0.41466zm-0.33999-1.8181c-0.20036-0.24141-0.26772-0.68272-0.16606-1.0878 0.13728-0.54695 0.3077-0.66522 0.86276-0.59875 0.38042 0.0456 0.82215 0.29119 0.9816 0.54585 0.6094 0.97326-0.9421 2.0278-1.6783 1.1407zm-9.1416-0.55032c-1.7171-0.42333-3.1368-0.95787-4.9136-1.8501-2.2576-1.1336-2.2895-1.2041-0.77677-1.7162 0.73435-0.2486 1.3741-0.49927 1.4217-0.55705 1.6642-2.0207 3.1861-4.3986 3.6182-5.6533 0.78311-2.2741 0.9764-5.9535 0.41433-7.8869-0.94538-3.252-3.4064-4.4732-4.5516-2.2586-0.36405 0.704-0.35968 0.89076 0.04573 1.9523 0.29324 0.76783 0.60768 1.1738 0.90912 1.1738 1.0496 0 1.3738 1.3789 0.45947 1.9547-0.67832 0.42718-1.3891-0.11839-1.3891-1.0662 0-0.42204-0.26789-1.1083-0.59531-1.525-1.428-1.8175 0.15586-4.9196 2.5118-4.9196 0.87898 0 0.78055-0.10207-2.2548-2.3381-1.7456-1.2859-3.7354-2.602-4.4217-2.9246-2.4857-1.1684-5.9142-2.1364-9.5357-2.6922-2.0328-0.312-3.7441-0.61275-3.8028-0.66833-0.05872-0.0556 0.29846-0.27129 0.79375-0.47935 5.3827-2.2612 7.7191-3.5215 11.953-6.4475 6.7351-4.6546 11.733-7.4559 15.283-8.5655 2.7771-0.86811 6.7293-0.86811 9.5063 0 3.5494 1.1095 8.5477 3.9109 15.283 8.5655 4.2339 2.926 6.5703 4.1862 11.953 6.4475 0.49529 0.20806 0.85247 0.42377 0.79375 0.47935-0.0587 0.0556-1.77 0.35633-3.8028 0.66833-3.6215 0.55584-7.05 1.5238-9.5357 2.6922-0.68629 0.3226-2.676 1.6387-4.4217 2.9246-3.0353 2.236-3.1338 2.3381-2.2548 2.3381 2.356 0 3.9398 3.1022 2.5118 4.9196-0.32743 0.41671-0.59532 1.103-0.59532 1.525 0 0.94786-0.71074 1.4934-1.3891 1.0662-0.9143-0.57578-0.59017-1.9547 0.45947-1.9547 0.30144 0 0.61588-0.40601 0.90912-1.1738 0.40541-1.0616 0.40979-1.2483 0.0457-1.9523-1.1452-2.2146-3.6062-0.99332-4.5516 2.2586-0.56206 1.9334-0.36878 5.6128 0.41433 7.8869 0.43208 1.2547 1.954 3.6326 3.6182 5.6533 0.0476 0.0578 0.68735 0.30845 1.4217 0.55705 1.5074 0.51031 1.4752 0.58557-0.72387 1.6894-1.7372 0.872-3.8338 1.6525-5.3164 1.9791-1.0174 0.22414-1.1233 0.20348-0.95946-0.18726 0.54477-1.299 0.50796-2.1689-0.22015-5.2017-0.61732-2.5713-0.77075-3.8384-0.80699-6.6642-0.0246-1.9191-0.12218-3.4073-0.2168-3.3073-0.90417 0.95597-7.104 12.765-7.104 13.531 0 0.15244-0.11906 0.27715-0.26458 0.27715s-0.26458-0.12471-0.26458-0.27715c0-0.76586-6.197-12.57-7.104-13.531-0.09463-0.10033-0.1836 1.3284-0.19772 3.175-0.02061 2.6956-0.17 3.9572-0.75788 6.4001-0.7785 3.2351-0.86711 4.4321-0.39361 5.3168 0.16169 0.30213 0.25457 0.58162 0.2064 0.6211-0.04817 0.0395-0.6829-0.075-1.4105-0.25435zm11.588-11.58c2.1856-3.4746 4.2348-6.2436 5.5064-7.4402 0.60407-0.56848 0.87459-0.94056 0.60114-0.82684-2.7883 1.1596-3.6834 1.3105-7.7732 1.3105-4.0898 0-4.9849-0.1509-7.7732-1.3105-0.27344-0.11372-0.0029 0.25836 0.60114 0.82684 1.2715 1.1966 3.3208 3.9656 5.5064 7.4402 0.84338 1.3408 1.593 2.4379 1.6657 2.4379 0.0728 0 0.82233-1.097 1.6657-2.4379zm3.8736-9.0858c2.7815-0.68907 4.6836-1.7056 8.3513-4.4629 3.72-2.7967 5.6472-3.8188 9.9327-5.2678 2.5005-0.84548 2.6598-0.93647 1.6521-0.9436-2.2736-0.0161-4.5092 1.0154-11.691 5.3943-2.8234 1.7215-5.6342 3.3514-6.2462 3.6221-3.0128 1.3327-8.3165 1.7412-12.007 0.92479-2.6786-0.59249-3.4323-0.9604-9.3147-4.5469-7.182-4.3788-9.4176-5.4104-11.691-5.3943-1.0077 7e-3 -0.8484 0.0981 1.6521 0.9436 4.2846 1.4487 6.2122 2.4709 9.9327 5.2669 5.4858 4.1227 7.5437 4.8532 13.741 4.8782 2.8072 0.0113 4.4549-0.10871 5.6886-0.41433zm-1.9107-1.4007c1.424-0.27943 3.0575-0.70691 3.63-0.94995 0.57249-0.24304 3.5975-1.9928 6.7223-3.8884 3.1248-1.8956 6.0655-3.607 6.5348-3.8031 0.83544-0.34907 1.3094-1.2381 1.0704-2.008-0.06-0.19346-0.1766-0.74161-0.25902-1.2181-0.13662-0.78979 0.23384-0.62957 0.69553-0.38248 0.27855 0.14907 0.60357 0.27054 0.72228 0.26992 0.11871-6.1e-4 -1.7305-1.0858-3.695-2.1515s-4.426-2.4872-5.4698-3.1592c-2.3677-1.524-4.5843-2.6585-4.5843-2.3463 0 0.13016 0.18788 0.39258 0.41752 0.58315 0.57249 0.47513 1.5528 2.4666 2.0665 4.1981 1.4958 5.0413-1.2539 11.318-5.9402 13.56-2.445 1.1698-3.298 1.3395-6.1608 1.2255-2.387-0.0951-2.8916-0.20608-4.5309-0.99671-2.4965-1.204-4.3845-3.1324-5.6389-5.7594-0.95353-1.9969-0.98261-2.1457-0.97148-4.969 0.01278-3.24 0.39811-4.5903 1.956-6.8546l0.85907-1.2486-1.3674 0.69293c-0.75208 0.3811-2.2215 1.2426-3.2654 1.9146-1.0439 0.6719-3.5053 2.0935-5.4698 3.1592s-3.4748 1.938-3.356 1.9386c0.11871 6.2e-4 0.44373-0.12085 0.72228-0.26992 0.46169-0.24709 0.4932-0.19448 0.35659 0.59531-0.08243 0.4765-0.19899 1.0246-0.25902 1.2181-0.23893 0.76992 0.235 1.659 1.0704 2.008 0.46937 0.19611 3.41 1.9075 6.5348 3.8031 6.5628 3.9812 6.9581 4.1689 10.144 4.8173 3.1038 0.63155 4.3364 0.63504 7.4651 0.0211zm-0.62602-4.4452c0.60413-0.23659 1.3824-0.64765 1.7294-0.91347 0.61759-0.47304 0.52059-0.48331-4.5641-0.48331-2.8573 0-5.1951 0.0498-5.1951 0.11071 0 0.0609 0.4406 0.38302 0.97911 0.71584 2.119 1.3096 4.6416 1.5136 7.0506 0.57023zm4.49-4.6832c0.21921-0.64334 0.32962-1.2386 0.24536-1.3229-0.0843-0.0843-3.5956-0.15321-7.803-0.15321h-7.6498l0.18462 0.8599c0.40796 1.9001-0.08103 1.7859 7.6471 1.7859h6.9773zm0.32171-4.0558c-0.0993-0.40018-0.32213-1.0253-0.49511-1.3891l-0.31453-0.66146-6.4789-0.0745c-3.5634-0.041-6.7414-0.0103-7.0623 0.0682-0.53788 0.13157-1.1302 1.4123-1.1349 2.4537-0.0011 0.25717 1.7409 0.33073 7.8324 0.33073h7.8339zm-2.7872-4.5884c-2.1531-1.7636-5.5135-2.2015-8.1171-1.0578-0.75361 0.33105-1.5757 0.82902-1.8269 1.1066-0.448 0.49503-0.35079 0.50459 5.0744 0.49882l5.5311-6e-3zm-37.703 5.2519c0.69967-0.49941 3.4755-1.9166 7.5406-3.8499 2.3889-1.1361 4.2625-2.2915 6.7469-4.1607 3.927-2.9545 6.6434-4.753 8.2682-5.474 1.3273-0.589 1.3795-0.91284 0.61892-3.8408-0.88216-3.3961-2.3298-6.0461-4.6325-8.4798-2.2459-2.3737-4.8687-1.9935-6.3404 0.9192-0.88578 1.7531-0.4492 3.3627 1.376 5.073 1.0088 0.94529 1.116 1.1243 0.5774 0.96384-0.3638-0.10838-1.0357-0.42347-1.4932-0.70022-2.8532-1.7261-2.2833-7.7324 0.93022-9.8032 1.1303-0.72835 1.3668-0.77967 3.0765-0.66761 4.2525 0.27873 7.9075 3.2518 10.746 8.7412l1.2214 2.3618 0.93463-3.0109c0.51405-1.656 1.3927-4.648 1.9525-6.6489 0.55986-2.0009 1.0784-3.638 1.1523-3.638 0.0739 0 0.59244 1.6371 1.1523 3.638 0.55986 2.0009 1.4385 4.9929 1.9526 6.6489l0.93463 3.0109 1.2214-2.3618c1.5241-2.9471 3.0585-4.9118 5.0042-6.4075 2.0584-1.5823 3.5543-2.1903 5.7422-2.3337 1.7097-0.11206 1.9462-0.0607 3.0765 0.66761 3.2135 2.0708 3.7834 8.0771 0.93022 9.8032-0.45745 0.27675-1.1294 0.59184-1.4932 0.70022-0.53861 0.16044-0.43138-0.0186 0.5774-0.96384 1.8252-1.7103 2.2618-3.3198 1.376-5.073-1.4716-2.9127-4.0945-3.2929-6.3404-0.9192-2.3027 2.4338-3.7504 5.0837-4.6325 8.4798-0.76056 2.928-0.70837 3.2518 0.61892 3.8408 1.613 0.71581 4.3219 2.5062 8.2682 5.4649 3.0542 2.2898 6.647 4.372 9.3927 5.4435 1.0958 0.42763 5.3198 2.7003 5.2146 2.8056-0.18471 0.18472-5.0251-1.2328-6.8021-1.992-3.2044-1.369-5.1829-2.558-8.9256-5.3636-5.6331-4.2228-8.4516-5.6116-12.77-6.2928-2.208-0.34828-6.7878-0.34828-8.9958 0-4.3187 0.68121-7.1371 2.07-12.77 6.2928-4.9346 3.6991-8.8863 5.7501-13.027 6.761-1.0186 0.24873-2.0902 0.5176-2.3813 0.59751l-0.52917 0.14527zm33.911-16.671c-0.0801-0.32742-0.34734-2.1134-0.59395-3.9688s-0.53496-3.3734-0.64077-3.3734-0.39416 1.518-0.64077 3.3734-0.51389 3.6413-0.59395 3.9688c-0.1369 0.55989-0.0634 0.59532 1.2347 0.59532 1.2981 0 1.3716-0.0354 1.2347-0.59532zm-18.86-0.84444c-0.39695-1.0344 0.5714-2.1075 1.4197-1.5732 0.99916 0.62922 0.56788 1.9547-0.63601 1.9547-0.35055 0-0.70323-0.17164-0.78373-0.38142zm33.522 0.0106c-0.73432-0.8848 0.57484-2.194 1.4596-1.4596 0.21866 0.18147 0.36177 0.63779 0.31803 1.014-0.0596 0.51296-0.25066 0.70399-0.76363 0.76362-0.37625 0.0437-0.83257-0.0994-1.014-0.31803zm-16.843-16.153c-0.19547-0.77882 0.24883-1.4679 0.94651-1.4679 0.64133 0 1.116 0.64438 1.0125 1.3745-0.0667 0.47068-0.28065 0.62864-0.93728 0.69211-0.72462 0.07004-0.87616-0.01877-1.0217-0.59875zm0.5062-2.4117c-0.22052-0.57466 0.33931-1.1151 0.74002-0.71438 0.33868 0.33868 0.12887 1.129-0.29971 1.129-0.15466 0-0.3528-0.1866-0.44031-0.41466z"/>
</svg>